<mxfile host="app.diagrams.net" modified="2024-01-17T01:52:17.369Z" agent="Mozilla/5.0 (Macintosh; Intel Mac OS X 10_15_7) AppleWebKit/537.36 (KHTML, like Gecko) Chrome/120.0.0.0 Safari/537.36" version="22.1.20" etag="MSamw4Je8zIS-T67CT1s" type="github">
  <diagram name="第 1 页" id="8xI3BacGl8LpcYW873p9">
    <mxGraphModel>
      <root>
        <mxCell id="0" />
        <mxCell id="1" parent="0" />
      </root>
    </mxGraphModel>
  </diagram>
</mxfile>
